<?xml version="1.0" encoding="utf-8"?>
<!-- Generator: Adobe Illustrator 23.0.0, SVG Export Plug-In . SVG Version: 6.00 Build 0)  -->
<svg version="1.1" id="Capa_1" xmlns="http://www.w3.org/2000/svg" xmlns:xlink="http://www.w3.org/1999/xlink" x="0px" y="0px"
	 viewBox="0 0 148 148" style="enable-background:new 0 0 148 148;" xml:space="preserve">
<style type="text/css">
	.st0{fill:none;}
	.st1{fill:#04b3c5;}
</style>
<g>
	<circle class="st0" cx="74" cy="74" r="74"/>
</g>
<path class="st1" d="M74,148c-40.8,0-74-33.2-74-74S33.2,0,74,0s74,33.2,74,74S114.8,148,74,148z M74,4C35.4,4,4,35.4,4,74
	c0,38.6,31.4,70,70,70c38.6,0,70-31.4,70-70C144,35.4,112.6,4,74,4z"/>
<path class="st1" d="M37.9,76.3c-1.1-1-1.1-2.8-0.1-3.9c0,0,0.1-0.1,0.1-0.1l4-4c1-1.1,2.8-1.1,3.9-0.1c0,0,0.1,0.1,0.1,0.1l0.3,0.3
	l15.7,16.8c0.5,0.6,1.4,0.6,1.9,0.1c0,0,0,0,0.1-0.1L102,45.9h0.3c1-1.1,2.8-1.1,3.9-0.1c0,0,0.1,0.1,0.1,0.1l4,4
	c1.1,1,1.1,2.8,0.1,3.9c0,0-0.1,0.1-0.1,0.1l0,0l-45.6,47.3c-1,1.1-2.8,1.1-3.9,0.1c0,0-0.1-0.1-0.1-0.1L38.4,77.2
	C38.4,77.2,37.9,76.3,37.9,76.3z"/>
</svg>
