<svg xmlns="http://www.w3.org/2000/svg" width="40" height="40" viewBox="0 0 40 40" fill="none"><g fill="currentColor"><path d="M11.042 32.324a9.63 9.63 0 0 1-.28.004c-5.073 0-9.2-3.93-9.2-8.762 0-4.83 4.127-8.761 9.2-8.761.093 0 .187.001.28.004.43.014.791-.31.805-.72.013-.411-.326-.755-.757-.767a11.177 11.177 0 0 0-.328-.005C4.828 13.317 0 17.915 0 23.567c0 5.651 4.828 10.249 10.762 10.249.11 0 .22-.002.328-.005.431-.013.77-.356.757-.767-.014-.41-.375-.734-.805-.72Z"></path><path d="M20.595 32.273a9.813 9.813 0 0 1-1.04.055c-5.072 0-9.198-3.93-9.198-8.762 0-4.83 4.126-8.76 9.199-8.76.348 0 .697.018 1.039.054.429.045.815-.248.863-.657.048-.408-.26-.776-.69-.822a11.468 11.468 0 0 0-1.212-.064c-5.934 0-10.762 4.598-10.762 10.25 0 5.651 4.828 10.249 10.762 10.249.406 0 .814-.022 1.213-.064.428-.046.737-.414.69-.823-.049-.408-.436-.702-.864-.656Z"></path><path d="M38.892 26.103c-.406-.14-.854.06-1 .446-1.315 3.457-4.792 5.779-8.653 5.779-5.072 0-9.199-3.93-9.199-8.761 0-4.831 4.127-8.761 9.2-8.761 3.865 0 7.343 2.325 8.655 5.786.146.387.594.587 1 .448.405-.14.616-.566.47-.953-1.535-4.049-5.604-6.77-10.126-6.77-5.934 0-10.762 4.598-10.762 10.25 0 5.651 4.828 10.249 10.762 10.249 4.517 0 8.585-2.717 10.122-6.76.147-.387-.063-.813-.469-.953ZM4.47 9.663h29.446l-1.233 1.195a.72.72 0 0 0 .01 1.052.817.817 0 0 0 1.105-.01l2.538-2.46a.726.726 0 0 0-.01-1.052l-2.628-2.46a.81.81 0 0 0-1.105.009.72.72 0 0 0 .01 1.052l1.266 1.186H4.47c-.43 0-.78.333-.78.744 0 .41.35.744.78.744Z"></path><path d="M39.985 23.421c-.062-.311-.342-.554-.67-.593a.796.796 0 0 0-.795.41c-.308.595.333 1.262.983 1.022a.745.745 0 0 0 .482-.839Z"></path></g></svg>