<svg xmlns="http://www.w3.org/2000/svg" width="40" height="40" viewBox="0 0 40 40" fill="none"><path d="M32.833 14.756h-6.666a4.224 4.224 0 0 0-2.945 1.192A4.02 4.02 0 0 0 22 18.821V31.83a4.02 4.02 0 0 0 1.222 2.873 4.224 4.224 0 0 0 2.945 1.192h6.666a4.224 4.224 0 0 0 2.945-1.192A4.02 4.02 0 0 0 37 31.83V18.821a4.02 4.02 0 0 0-1.222-2.873 4.224 4.224 0 0 0-2.945-1.192Zm2.5 17.073c0 .647-.264 1.267-.733 1.724a2.535 2.535 0 0 1-1.767.715h-6.666a2.535 2.535 0 0 1-1.767-.715 2.412 2.412 0 0 1-.733-1.724V18.821c0-.647.264-1.267.733-1.724a2.535 2.535 0 0 1 1.767-.715h6.666c.663 0 1.299.258 1.767.715.469.457.733 1.077.733 1.724V31.83ZM2 25.325a.796.796 0 0 1 .244-.575.834.834 0 0 1 .59-.238H19.5v1.626H3.81c.172.475.492.887.914 1.178.422.291.926.448 1.443.448H19.5v1.626H6.167a4.225 4.225 0 0 1-2.945-1.192A4.02 4.02 0 0 1 2 25.325Zm5-3.252H5.333V9.065a4.02 4.02 0 0 1 1.222-2.873A4.225 4.225 0 0 1 9.5 5h20a4.225 4.225 0 0 1 2.945 1.192 4.02 4.02 0 0 1 1.222 2.873v3.334a6.689 6.689 0 0 0-.834-.082H32V9.065c0-.647-.264-1.267-.733-1.724a2.535 2.535 0 0 0-1.767-.715h-20c-.663 0-1.298.258-1.767.715A2.412 2.412 0 0 0 7 9.065v13.008Z" fill="currentColor"></path></svg>