<svg xmlns="http://www.w3.org/2000/svg" width="40" height="40" viewBox="0 0 40 40" fill="none"><path d="M38.351 22.662 12.018 11.898a.733.733 0 0 0-.753.123.682.682 0 0 0-.21.716l7.925 26.758a.7.7 0 0 0 .24.35.73.73 0 0 0 .403.154h.045a.726.726 0 0 0 .391-.113.7.7 0 0 0 .264-.303l5.319-11.816 12.64-3.793a.716.716 0 0 0 .356-.238.687.687 0 0 0-.287-1.074Zm-13.447 3.862a.733.733 0 0 0-.447.387l-4.65 10.341-6.961-23.496 23.125 9.45-11.067 3.318ZM3.905 12.222H1.927a.726.726 0 0 0-.507.205.691.691 0 0 0 0 .989.726.726 0 0 0 .507.205h1.978c.19 0 .372-.074.507-.205a.69.69 0 0 0 0-.99.726.726 0 0 0-.507-.204ZM6.204 19.072l-1.457 1.422a.691.691 0 0 0 0 .99.726.726 0 0 0 1.014 0l1.455-1.422a.69.69 0 0 0-.008-.981.726.726 0 0 0-1.005-.009h.001ZM21.07 6.872l1.327-1.294a.7.7 0 0 0 .21-.495.685.685 0 0 0-.21-.494.719.719 0 0 0-.507-.205.732.732 0 0 0-.507.205l-1.327 1.294a.691.691 0 0 0 0 .99.726.726 0 0 0 1.014 0ZM13.69 4.181c.19 0 .373-.074.507-.205a.691.691 0 0 0 .21-.495V1.675a.691.691 0 0 0-.21-.495.726.726 0 0 0-1.014 0 .691.691 0 0 0-.21.495v1.806c0 .186.076.364.21.495a.726.726 0 0 0 .507.205ZM5.927 4.426a.727.727 0 0 0-1.005.008.691.691 0 0 0-.01.98L6.252 6.72a.726.726 0 0 0 1.014 0 .691.691 0 0 0 0-.989L5.927 4.426Z" fill="currentColor"></path></svg>