<svg xmlns="http://www.w3.org/2000/svg" width="50" height="50" viewBox="0 0 50 50" fill="none"><path d="M49.493 25.6a24.089 24.089 0 0 1-.248 2.94v.002C47.53 40.394 37.328 49.5 25 49.5 12.272 49.5 1.81 39.794.614 27.38a24.963 24.963 0 0 1 .043-5.166c.739-6.532 4.047-12.286 8.892-16.227A24.403 24.403 0 0 1 25 .5c3.67 0 7.15.806 10.273 2.25a24.43 24.43 0 0 1 3.405 1.92l.28-.415-.28.415c5.5 3.707 9.413 9.588 10.51 16.408v.002a24.439 24.439 0 0 1 .294 2.94 24.691 24.691 0 0 1 .012 1.58Z" stroke="currentColor"></path><path d="M30.15 11.33H19.47a2.854 2.854 0 0 0-2.85 2.851V35.82a2.854 2.854 0 0 0 2.85 2.85h10.68A2.854 2.854 0 0 0 33 35.82V14.181a2.854 2.854 0 0 0-2.85-2.85Zm-2.13 1.024v.661a.505.505 0 0 1-.505.504h-5.41a.505.505 0 0 1-.503-.504v-.661h6.417Zm3.956 23.465a1.83 1.83 0 0 1-1.827 1.828H19.47a1.83 1.83 0 0 1-1.828-1.828V14.181a1.83 1.83 0 0 1 1.828-1.827h1.107v.661a1.53 1.53 0 0 0 1.527 1.528h5.41a1.53 1.53 0 0 0 1.527-1.528v-.661h1.107a1.83 1.83 0 0 1 1.827 1.828v21.637Z" fill="currentColor"></path><path d="M27.956 35.21h-6.292a.512.512 0 0 0 0 1.024h6.292a.512.512 0 0 0 0-1.024Z" fill="currentColor"></path></svg>