<svg xmlns="http://www.w3.org/2000/svg" width="40" height="40" viewBox="0 0 40 40" fill="none"><path fill-rule="evenodd" clip-rule="evenodd" d="M11.667 13.496v8.943c0 1.078.438 2.112 1.22 2.875a4.22 4.22 0 0 0 2.946 1.19h8.334a4.22 4.22 0 0 0 2.946-1.19 4.015 4.015 0 0 0 1.22-2.875v-8.943h.834c.46 0 .833-.364.833-.813V8.618a.824.824 0 0 0-.833-.813H10.833a.824.824 0 0 0-.833.813v4.065c0 .449.373.813.833.813h.834Zm1.666-.813a.824.824 0 0 0-.833-.813h-.833V9.43h16.666v2.44H27.5a.824.824 0 0 0-.833.813v9.756c0 .647-.264 1.267-.732 1.725a2.537 2.537 0 0 1-1.768.714h-8.334a2.537 2.537 0 0 1-1.768-.714 2.413 2.413 0 0 1-.732-1.725v-9.756Z" fill="currentColor"></path><path fill-rule="evenodd" clip-rule="evenodd" d="M15.833 8.618V3.74A.824.824 0 0 0 15 2.927a.824.824 0 0 0-.833.813v4.878c0 .449.373.813.833.813.46 0 .833-.364.833-.813ZM25.833 8.618V3.74A.824.824 0 0 0 25 2.927a.824.824 0 0 0-.833.813v4.878c0 .449.373.813.833.813.46 0 .833-.364.833-.813ZM19.167 25.69v5.692c0 1.509.615 2.956 1.708 4.024A5.91 5.91 0 0 0 25 37.073h3.333c.46 0 .834-.364.834-.813a.824.824 0 0 0-.834-.813H25a4.22 4.22 0 0 1-2.947-1.19 4.015 4.015 0 0 1-1.22-2.875v-5.691a.824.824 0 0 0-.833-.813.824.824 0 0 0-.833.813Z" fill="currentColor"></path></svg>