<svg xmlns="http://www.w3.org/2000/svg" width="40" height="40" viewBox="0 0 40 40" fill="none"><path d="M31 6.555c0-.297.123-.582.342-.792.219-.21.515-.328.825-.328 1.547 0 3.03.59 4.124 1.64A5.492 5.492 0 0 1 38 11.038v17.926c0 1.485-.615 2.91-1.709 3.96a5.958 5.958 0 0 1-4.124 1.642H18.65l2.676 2.567c.22.21.342.496.342.794a1.1 1.1 0 0 1-.342.793c-.22.21-.516.328-.826.328-.31 0-.607-.118-.826-.328l-4.667-4.482a1.119 1.119 0 0 1-.253-.364 1.082 1.082 0 0 1 .253-1.222l4.667-4.482c.22-.21.516-.328.826-.328.31 0 .607.118.826.328.22.21.342.496.342.794a1.1 1.1 0 0 1-.342.793l-2.676 2.568h13.517c.928 0 1.818-.354 2.474-.985a3.295 3.295 0 0 0 1.026-2.376V11.037c0-.892-.37-1.746-1.026-2.377a3.575 3.575 0 0 0-2.474-.984c-.31 0-.607-.118-.825-.328A1.098 1.098 0 0 1 31 6.555ZM8.833 34.565c.31 0 .607-.118.825-.329.22-.21.342-.495.342-.792 0-.297-.123-.582-.342-.792a1.192 1.192 0 0 0-.825-.328 3.574 3.574 0 0 1-2.475-.985 3.295 3.295 0 0 1-1.025-2.376V11.037c0-.892.37-1.746 1.025-2.377a3.575 3.575 0 0 1 2.475-.984H22.35l-2.676 2.568a1.1 1.1 0 0 0-.342.793c0 .297.123.583.342.793.22.21.516.329.826.329.31 0 .607-.119.826-.329l4.667-4.481a1.12 1.12 0 0 0 .253-.364 1.082 1.082 0 0 0-.253-1.223l-4.667-4.481A1.193 1.193 0 0 0 20.5.952c-.31 0-.607.118-.826.329a1.1 1.1 0 0 0-.342.793c0 .297.123.583.342.793l2.676 2.568H8.833c-1.547 0-3.03.59-4.124 1.64A5.491 5.491 0 0 0 3 11.038v17.926c0 1.485.615 2.91 1.709 3.96a5.958 5.958 0 0 0 4.124 1.642Z" fill="currentColor"></path></svg>