<svg xmlns="http://www.w3.org/2000/svg" width="40" height="40" viewBox="0 0 40 40" fill="none"><path d="M32.771.952c-2.947 0-5.387 2.045-5.87 4.727H2.274c-.555 0-1.004.428-1.004.956 0 .529.45.957 1.004.957h24.62c.482 2.674 2.923 4.727 5.87 4.727 3.29 0 5.96-2.543 5.96-5.676S36.052.953 32.77.953Zm0 9.446c-2.18 0-3.959-1.695-3.959-3.77 0-2.076 1.78-3.771 3.96-3.771 2.179 0 3.959 1.695 3.959 3.77 0 2.076-1.78 3.771-3.96 3.771ZM37.734 18.99H13.106c-.482-2.675-2.922-4.728-5.87-4.728-3.29 0-5.959 2.543-5.959 5.676s2.678 5.675 5.96 5.675c2.947 0 5.387-2.045 5.869-4.727h24.62c.555 0 1.004-.427 1.004-.956 0-.513-.449-.94-.995-.94ZM7.237 23.715c-2.18 0-3.96-1.695-3.96-3.77 0-2.076 1.78-3.771 3.96-3.771 2.18 0 3.959 1.695 3.959 3.77 0 2.076-1.772 3.771-3.96 3.771ZM32.771 27.68c-2.947 0-5.387 2.045-5.87 4.728H2.274c-.555 0-1.004.427-1.004.956 0 .529.45.956 1.004.956h24.62c.482 2.675 2.923 4.727 5.87 4.727 3.29 0 5.96-2.542 5.96-5.675 0-3.134-2.67-5.691-5.952-5.691Zm0 9.447c-2.18 0-3.959-1.695-3.959-3.77 0-2.077 1.78-3.772 3.96-3.772 2.179 0 3.959 1.695 3.959 3.771 0 2.076-1.78 3.77-3.96 3.77Z" fill="currentColor"></path></svg>