<svg xmlns="http://www.w3.org/2000/svg" width="34" height="34" viewBox="0 0 34 34" fill="none"><circle cx="17" cy="17" r="16.5" stroke="currentColor"></circle><path d="M24.039 10.713a1.993 1.993 0 0 0-2.11-.356 1.952 1.952 0 0 0-1.11 1.911c.072.569.272 1.114.584 1.596.42.853.9 1.817.742 2.864l-1.724 4.734-3.046-8.615h.696l1.648 4.676a.585.585 0 0 0 .82.321.585.585 0 0 0 .285-.713l-1.514-4.284h.462a.584.584 0 1 0 0-1.17h-3.87a.585.585 0 0 0 0 1.17h.234l.778 2.186-2.297 6.43-3.04-8.616h.69l1.654 4.676a.585.585 0 0 0 .55.385.585.585 0 0 0 .193-.029.582.582 0 0 0 .356-.748l-1.514-4.284h.468a.585.585 0 0 0 0-1.17h-3.87a.585.585 0 0 0 0 1.17h.234l3.73 10.561a.584.584 0 0 0 1.098.006l2.361-6.628 2.338 6.617a.584.584 0 0 0 1.1.005l2.261-6.33v-.029l.953-2.67.357-1.07a2.338 2.338 0 0 0-.497-2.596Zm-.585 2.227-.526 1.508c-.163-.409-.345-.777-.508-1.11a3.676 3.676 0 0 1-.433-1.076.86.86 0 0 1 .392-.841c.09-.04.188-.06.286-.059a.87.87 0 0 1 .585.216 1.245 1.245 0 0 1 .187 1.362h.017Z" fill="currentColor"></path></svg>