<svg xmlns="http://www.w3.org/2000/svg" width="34" height="34" viewBox="0 0 34 34" fill="none"><path d="M12.752 24.081H9.918V9.914h2.834v14.167Zm11.334 0h-8.5v-2.833h8.5v2.833Zm0-5.667h-8.5v-2.833h8.5v2.833Zm0-5.666h-8.5V9.914h8.5v2.834Z" fill="currentColor"></path><path d="M33.495 17.404a16.236 16.236 0 0 1-.167 1.98v.001C32.173 27.367 25.302 33.5 17 33.5 8.428 33.5 1.382 26.963.577 18.603a16.814 16.814 0 0 1 .029-3.48A16.47 16.47 0 0 1 6.594 4.195 16.434 16.434 0 0 1 17 .5c2.472 0 4.815.543 6.919 1.516a16.5 16.5 0 0 1 9.371 12.343c.057.35.102.705.136 1.063v.001a16.597 16.597 0 0 1 .07 1.98Z" stroke="currentColor"></path></svg>