<svg xmlns="http://www.w3.org/2000/svg" width="34" height="34" viewBox="0 0 34 34" fill="none"><path d="M33.495 17.404a16.236 16.236 0 0 1-.167 1.98v.001C32.173 27.367 25.302 33.5 17 33.5 8.428 33.5 1.382 26.963.577 18.603a16.814 16.814 0 0 1 .029-3.48A16.47 16.47 0 0 1 6.594 4.195 16.434 16.434 0 0 1 17 .5c2.472 0 4.815.543 6.919 1.516a16.5 16.5 0 0 1 9.371 12.343c.057.35.102.705.136 1.063v.001a16.597 16.597 0 0 1 .07 1.98Z" stroke="currentColor"></path><path fill-rule="evenodd" clip-rule="evenodd" d="M8.734 10.957h16.509c1.046 0 1.894.848 1.893 1.894v6.216a1.894 1.894 0 0 1-1.893 1.894h-5.866l.696 2.023-3.483-2.023H8.734a1.894 1.894 0 0 1-1.894-1.894V12.85c0-1.046.848-1.894 1.894-1.894Zm1.05 9.058h.007a.697.697 0 0 0 .567-.29c.45-.63 1.253-2.17 1.864-3.385.02.064.04.128.062.192.498 1.497 1.067 2.573 1.691 3.197a.696.696 0 0 0 1.189-.472c.001-.043.139-4.333 1.057-6.216a.696.696 0 1 0-1.252-.61c-.577 1.184-.88 3.065-1.037 4.548a17.673 17.673 0 0 1-.839-2.743.696.696 0 0 0-1.31-.16 94.343 94.343 0 0 1-1.81 3.573 38.874 38.874 0 0 1-.39-1.872 86.167 86.167 0 0 1-.462-2.745.697.697 0 0 0-1.378.204c.002.014.204 1.369.473 2.808.5 2.684.797 3.37 1 3.667.128.188.34.302.567.305Zm10.82-5.877a2.22 2.22 0 0 0-1.44-1.178c-.742-.206-1.546.068-2.151.734-.718.79-1.242 2.268-.56 4.05.468 1.221 1.204 1.445 1.68 1.445.05 0 .098-.003.143-.007 1.265-.12 2.327-1.793 2.532-2.94.147-.823.078-1.53-.204-2.104Zm-1.167 1.858c-.065.359-.289.833-.573 1.209-.291.386-.577.577-.72.59-.086.009-.247-.177-.39-.55-.285-.745-.38-1.877.29-2.614.2-.22.432-.344.631-.344.04 0 .08.005.116.015.746.208.763 1.036.646 1.694Zm5.757-2.6c.241.198.438.448.584.742.282.573.35 1.28.203 2.103-.205 1.148-1.267 2.821-2.531 2.941a1.571 1.571 0 0 1-.144.007c-.476 0-1.211-.224-1.679-1.445-.682-1.782-.158-3.26.56-4.05.605-.666 1.41-.94 2.151-.734.326.091.613.238.856.436Zm-1.156 3.809c.284-.376.508-.85.572-1.209.117-.658.102-1.486-.644-1.694a.43.43 0 0 0-.117-.015c-.2 0-.432.124-.632.344-.67.737-.574 1.87-.289 2.615.142.372.304.558.39.55.142-.014.428-.205.72-.591Z" fill="currentColor"></path></svg>