<svg xmlns="http://www.w3.org/2000/svg" width="40" height="40" viewBox="0 0 40 40" fill="none"><path d="M34.352 12.387H23.88V5.273c0-1.16-.474-2.246-1.331-3.054A4.623 4.623 0 0 0 19.343.952h-14.4C2.441.952.406 2.891.406 5.274v9.142c0 2.383 2.035 4.322 4.537 4.322h.263v2.536c0 .834.523 1.575 1.332 1.887.26.1.53.149.799.149.56 0 1.106-.211 1.505-.606l3.049-2.888v8.496c0 2.753 2.351 4.993 5.242 4.993h7.62l5.051 4.785a2.404 2.404 0 0 0 1.687.684c.298 0 .598-.054.885-.165.898-.346 1.478-1.17 1.478-2.097v-3.207h.497c2.89 0 5.243-2.24 5.243-4.993V17.38c0-2.752-2.352-4.992-5.242-4.992Zm-22.457 4.907L7.507 21.45a.23.23 0 0 1-.266.055.233.233 0 0 1-.16-.232v-3.429c0-.493-.42-.892-.938-.892h-1.2c-1.468 0-2.662-1.138-2.662-2.536V5.273c0-1.398 1.194-2.536 2.662-2.536h14.4c.709 0 1.377.265 1.884.748.502.473.779 1.108.779 1.788v7.114h-4.873c-1.397 0-2.713.52-3.705 1.464-.97.924-1.51 2.144-1.533 3.443Zm25.824 11.018c0 1.768-1.51 3.207-3.367 3.207h-1.435c-.518 0-.938.4-.938.893v4.1a.459.459 0 0 1-.306.442.487.487 0 0 1-.534-.118l-5.338-5.057a.964.964 0 0 0-.661-.26h-8.007c-1.857 0-3.367-1.439-3.367-3.207V17.379c0-.854.35-1.658.988-2.265a3.43 3.43 0 0 1 2.38-.942h17.218c1.857 0 3.367 1.44 3.367 3.207v10.933Z" fill="currentColor"></path><path d="M19.939 21.543c-.763 0-1.383.591-1.383 1.317 0 .725.62 1.317 1.383 1.317s1.384-.592 1.384-1.317c0-.726-.621-1.317-1.384-1.317ZM25.742 21.543c-.763 0-1.383.591-1.383 1.317 0 .725.621 1.317 1.383 1.317.763 0 1.384-.592 1.384-1.317 0-.726-.62-1.317-1.384-1.317ZM31.546 21.543c-.763 0-1.383.591-1.383 1.317 0 .725.62 1.317 1.383 1.317s1.384-.592 1.384-1.317c0-.726-.621-1.317-1.384-1.317Z" fill="currentColor"></path></svg>