<svg xmlns="http://www.w3.org/2000/svg" width="89" height="37" viewBox="0 0 89 37" fill="none"><path d="M18.128 37c-3.43 0-6.533-.742-9.31-2.225-2.743-1.515-4.899-3.579-6.466-6.19C.784 25.94 0 22.973 0 19.684c0-3.289.784-6.24 2.352-8.851 1.567-2.644 3.74-4.708 6.516-6.19 2.776-1.516 5.879-2.274 9.309-2.274 2.678 0 5.128.451 7.349 1.354a14.808 14.808 0 0 1 5.683 3.918l-3.185 3.047c-2.58-2.676-5.797-4.014-9.652-4.014-2.547 0-4.85.564-6.908 1.692-2.057 1.129-3.674 2.693-4.85 4.692C5.471 15.026 4.9 17.234 4.9 19.685c0 2.45.572 4.675 1.715 6.675 1.176 1.966 2.793 3.514 4.85 4.643 2.058 1.128 4.36 1.692 6.908 1.692 3.822 0 7.04-1.354 9.652-4.062l3.185 3.047c-1.568 1.74-3.479 3.063-5.732 3.966-2.221.903-4.671 1.354-7.35 1.354ZM37.512 10.98h4.703v25.633h-4.703V10.98ZM55.703 15.284c.817-1.484 2.025-2.612 3.626-3.386 1.6-.774 3.544-1.16 5.83-1.16v4.497a9.287 9.287 0 0 0-1.078-.048c-2.548 0-4.556.758-6.026 2.273-1.437 1.483-2.156 3.611-2.156 6.384v12.77h-4.703V10.978h4.507v4.305Z" fill="#fff"></path><path d="M70.956 10.98h4.703v25.633h-4.703V10.98Zm2.352-4.934c-.915 0-1.683-.29-2.303-.87-.588-.581-.882-1.29-.882-2.129 0-.838.294-1.548.882-2.128C71.625.306 72.393 0 73.308 0c.914 0 1.665.29 2.253.87.62.549.931 1.242.931 2.08 0 .87-.31 1.613-.93 2.225-.589.58-1.34.87-2.254.87ZM85.766 36.903c-.914 0-1.698-.306-2.351-.919-.654-.645-.98-1.45-.98-2.418 0-.935.326-1.709.98-2.322a3.228 3.228 0 0 1 2.351-.967c.915 0 1.683.306 2.303.92.62.612.931 1.402.931 2.369 0 .967-.327 1.773-.98 2.418a3.09 3.09 0 0 1-2.254.92Z" fill="#C4B8A5"></path></svg>