<svg xmlns="http://www.w3.org/2000/svg" width="70" height="70" viewBox="0 0 70 70" fill="none"><path d="M15.006 36.181v4.907a1.091 1.091 0 0 0 1.094 1.094h1.94l4.547 22.565a1.094 1.094 0 0 0 1.073.878h22.68a1.095 1.095 0 0 0 1.073-.878l4.548-22.565h1.94a1.092 1.092 0 0 0 1.093-1.094v-4.907a1.095 1.095 0 0 0-1.094-1.093H36.498a66.978 66.978 0 0 1 .768-17.109c3.514 4.255 11.105 3.007 14.145-1.526a1.092 1.092 0 0 0 .005-1.265c-2.672-3.795-8.097-5.462-12.087-3.253a10.634 10.634 0 0 1 5.939-5.432 1.094 1.094 0 0 0-.714-2.068c-5.48 1.893-8.172 7.245-9.439 13.157-3.038-5.276-10.314-7.237-16.058-4.845a1.092 1.092 0 0 0-.67 1.073c.308 7.754 8.41 14.602 15.765 11.648a87.912 87.912 0 0 0 .142 9.62H16.1a1.091 1.091 0 0 0-1.094 1.093Zm26.538-22.816a7.799 7.799 0 0 1 7.58 2.446 7.794 7.794 0 0 1-7.599 2.385 5.672 5.672 0 0 1-3.213-2.43 5.667 5.667 0 0 1 3.232-2.4ZM28.18 23.64a11.31 11.31 0 0 1-7.531-9.153 11.308 11.308 0 0 1 11.527 2.758 8.327 8.327 0 0 1 2.13 5.777 8.353 8.353 0 0 1-6.126.618Zm17.266 39.797h-20.89L20.27 42.183h29.458l-4.284 21.255ZM17.193 37.276h35.614v2.72H17.193v-2.72Z" fill="currentColor"></path></svg>