<svg xmlns="http://www.w3.org/2000/svg" width="70" height="70" viewBox="0 0 70 70" fill="none"><path d="M12.787 49.187h14.75v.565a7.256 7.256 0 0 0 14.511 0v-.564h15.165a.82.82 0 0 0 .82-.82c0-11.213-8.054-20.579-18.68-22.62v-2.777a4.359 4.359 0 0 0-3.533-4.274V2.187a.82.82 0 1 0-1.64 0v16.51a4.36 4.36 0 0 0-3.532 4.274v2.777c-10.627 2.04-18.682 11.406-18.682 22.62a.82.82 0 0 0 .82.82Zm27.62.565a5.615 5.615 0 0 1-11.23 0v-.564h11.23v.564ZM35 20.259a2.714 2.714 0 0 1 2.622 2.032h-5.244A2.714 2.714 0 0 1 35 20.26Zm-2.712 3.673h5.424v1.562a23.01 23.01 0 0 0-5.424 0v-1.562ZM35 26.975c11.522 0 20.945 9.154 21.377 20.572H13.622C14.056 36.13 23.479 26.975 35 26.975ZM34.18 62.276v5.536a.82.82 0 1 0 1.64 0v-5.536a.82.82 0 1 0-1.64 0ZM41.483 58.993a.822.822 0 0 0-.01 1.16l3.875 3.944a.82.82 0 0 0 1.17-1.15l-3.875-3.944a.82.82 0 0 0-1.16-.01ZM27.356 59.003l-3.875 3.944a.82.82 0 0 0 1.17 1.15l3.875-3.944a.82.82 0 0 0-1.17-1.15Z" fill="currentColor"></path><path d="M25.532 32.376a23.068 23.068 0 0 0-6.28 6.582.822.822 0 0 0 .874 1.24.82.82 0 0 0 .513-.362 21.436 21.436 0 0 1 5.835-6.117.82.82 0 0 0-.942-1.343Z" fill="currentColor"></path></svg>