<svg xmlns="http://www.w3.org/2000/svg" width="66" height="66" viewBox="0 0 66 66" fill="none"><path d="M60.746 26.318h-6.504V12.026a3.355 3.355 0 0 0-3.352-3.351H15.11a3.356 3.356 0 0 0-3.352 3.351v14.292H5.254a3.97 3.97 0 0 0-3.965 3.965v26.269a.774.774 0 0 0 1.547 0V45.897h60.328v10.655a.773.773 0 1 0 1.547 0v-26.27a3.969 3.969 0 0 0-3.965-3.964Zm-47.44-14.292a1.807 1.807 0 0 1 1.804-1.805h35.78a1.807 1.807 0 0 1 1.805 1.805v14.292h-2.662v-3.996a3.97 3.97 0 0 0-3.965-3.966h-7.77a3.97 3.97 0 0 0-3.965 3.965v3.996h-2.666v-3.996a3.97 3.97 0 0 0-3.965-3.965h-7.77a3.97 3.97 0 0 0-3.965 3.965v3.996h-2.662v-14.29ZM35.88 26.318v-3.996a2.42 2.42 0 0 1 2.418-2.419h7.77a2.42 2.42 0 0 1 2.418 2.418v3.996H35.88Zm-18.366 0v-3.996a2.421 2.421 0 0 1 2.418-2.419h7.77a2.42 2.42 0 0 1 2.418 2.418v3.996H17.514Zm-12.26 1.547h55.492a2.42 2.42 0 0 1 2.418 2.418v9.17H2.836v-9.17a2.42 2.42 0 0 1 2.418-2.418ZM2.836 44.35V41h60.328v3.35H2.836Z" fill="currentColor"></path></svg>