<svg xmlns="http://www.w3.org/2000/svg" width="66" height="66" viewBox="0 0 66 66" fill="none"><path d="M64.53 24.839a5.467 5.467 0 0 0-3.979-1.726c-.585 0-1.164.095-1.714.277l.66-3.704a8.57 8.57 0 0 0-1.868-7.026 8.571 8.571 0 0 0-6.589-3.077h-36.8a8.555 8.555 0 0 0-6.681 3.19 8.556 8.556 0 0 0-1.72 7.203l.695 3.246a5.468 5.468 0 0 0-5.064 1.617 5.47 5.47 0 0 0-1.458 4.085l.726 10.897c.03 4.468 3.596 8.109 8.034 8.262L7.64 52.614c-.23.92-.028 1.878.556 2.626a3.041 3.041 0 0 0 2.412 1.176 3.056 3.056 0 0 0 2.97-2.317l1.501-6.009h35.842l1.502 6.009a3.056 3.056 0 0 0 2.969 2.317 3.04 3.04 0 0 0 2.412-1.176 3.04 3.04 0 0 0 .556-2.626l-1.132-4.53a8.27 8.27 0 0 0 5.597-2.432 8.274 8.274 0 0 0 2.437-5.833l.726-10.895a5.47 5.47 0 0 0-1.459-4.085ZM9.176 14.082a6.483 6.483 0 0 1 5.063-2.417h36.8c1.932 0 3.752.85 4.993 2.331a6.493 6.493 0 0 1 1.416 5.324l-1.012 5.67a5.431 5.431 0 0 0-1.23 2.503L53.35 36.79a2.413 2.413 0 0 1-2.36 1.935H15.01a2.413 2.413 0 0 1-2.36-1.935l-1.859-9.297a5.466 5.466 0 0 0-1.888-3.143l-1.03-4.81a6.483 6.483 0 0 1 1.303-5.457Zm2.38 39.512a.977.977 0 0 1-1.72.365.972.972 0 0 1-.178-.84l1.257-5.028h2.017l-1.375 5.503Zm44.606.365a.977.977 0 0 1-1.72-.365l-1.377-5.503h2.018l1.257 5.028c.074.295.009.6-.178.84Zm5.19-9.779a6.209 6.209 0 0 1-4.416 1.83H9.063a6.252 6.252 0 0 1-6.245-6.245l-.001-.034-.001-.035-.727-10.91a3.336 3.336 0 0 1 .901-2.525 3.334 3.334 0 0 1 2.459-1.066c.69 0 1.356.208 1.924.604l.003.002.003.002a3.378 3.378 0 0 1 1.372 2.098l1.86 9.296a4.5 4.5 0 0 0 4.4 3.609H50.99a4.5 4.5 0 0 0 4.4-3.608l1.86-9.295a3.352 3.352 0 0 1 1.168-1.945 3.376 3.376 0 0 1 2.134-.764c.942 0 1.815.379 2.459 1.067.643.688.964 1.585.901 2.525l-.727 10.91v.035l-.002.034c0 1.667-.65 3.236-1.829 4.415Z" fill="currentColor"></path></svg>