<svg xmlns="http://www.w3.org/2000/svg" width="66" height="66" viewBox="0 0 66 66" fill="none"><path fill-rule="evenodd" clip-rule="evenodd" d="M39.708 51.153H26.292a.776.776 0 0 1-.774-.773v-3.21c0-.348.232-.657.58-.734 3.867-1.044 3.673-5.877 3.673-5.954V25.905H11.6c-4.214 0-4.214-6.457 0-6.457h42.647c4.214 0 4.214 6.457 0 6.457H36.228v14.577c0 .193-.077 4.949 3.673 5.954.31.077.58.386.58.734v3.21a.776.776 0 0 1-.773.773Zm23.315-13.185 2.938 12.218c.232 1.006-1.276 1.392-1.508.387L61.631 38.78H48.794l-2.938 11.793c-.27 1.005-1.74.619-1.508-.387l3.093-12.295v-2.59a3.614 3.614 0 0 1 3.596-3.596h11.251l2.165-16.2c.116-1.006 1.663-.851 1.547.193l-2.977 22.27Zm-60.085 0C1.972 30.545.966 23.121 0 15.698c-.116-1.005 1.43-1.199 1.546-.194l2.127 16.2h11.29a3.614 3.614 0 0 1 3.596 3.597v2.629l3.054 12.256c.27 1.006-1.237 1.392-1.469.387L17.167 38.78H4.369L1.546 50.573c-.27 1.005-1.778.619-1.507-.348l2.9-12.257Zm28.38-12.063v14.538c.077 2.05-.696 6.032-4.253 7.308v1.855h11.87v-1.855c-3.441-1.315-4.292-5.259-4.253-7.27V25.906h-3.364ZM3.905 33.251l.503 3.983h12.604V35.3c0-1.122-.928-2.05-2.049-2.05H3.905Zm57.687 3.983.503-3.983H51.037c-1.121 0-2.05.928-2.05 2.05v1.933h12.605ZM11.6 20.994c-2.165 0-2.165 3.365 0 3.365h42.647c2.165 0 2.165-3.364 0-3.364H11.599Z" fill="currentColor"></path></svg>