<svg xmlns="http://www.w3.org/2000/svg" width="66" height="66" viewBox="0 0 66 66" fill="none"><path d="M16.135 35.76c.343.186.678.35 1.006.499h-2.62a.66.66 0 0 0-.58.346c-1.04 1.926-1.566 4.297-1.566 7.049C12.375 53.955 19.507 59.4 33 59.4s20.625-5.445 20.625-15.746c0-2.752-.526-5.123-1.565-7.049a.66.66 0 0 0-.581-.346H48.93c.325-.15.657-.313.998-.5 2.924-1.593 6.933-4.953 9.432-11.907a.66.66 0 0 0-.216-.744c-.122-.095-2.914-2.184-9.196-.852a29.49 29.49 0 0 0 1.145-9.774.662.662 0 0 0-.914-.578c-.17.071-4.206 1.777-8.446 5.227a33.71 33.71 0 0 0-1.992 1.753c-.66-7.63-6.09-11.953-6.336-12.145a.66.66 0 0 0-.778-.024c-.26.177-6.038 4.206-6.721 11.846a34.016 34.016 0 0 0-1.64-1.43c-4.24-3.45-8.278-5.156-8.447-5.227a.66.66 0 0 0-.914.578 29.363 29.363 0 0 0 1.15 9.775c-6.285-1.334-9.079.756-9.201.851a.66.66 0 0 0-.216.744c2.5 6.955 6.544 10.315 9.496 11.909Zm34.941 1.819c.816 1.67 1.23 3.71 1.23 6.075 0 9.572-6.496 14.426-19.306 14.426s-19.305-4.854-19.305-14.426c0-2.364.413-4.406 1.23-6.075h36.151Zm6.853-13.66c-4.527 11.913-13.464 12.326-13.922 12.34H41.24c2.09-1.932 6.01-6.186 8.237-12.539 4.803-1.185 7.495-.27 8.452.2ZM32.975 8.11c1.289 1.177 5.405 5.456 5.505 12.06-2.692 2.89-4.541 6.045-5.48 9.352-.98-3.451-2.945-6.74-5.83-9.731.112-6.55 4.45-10.583 5.805-11.68Zm-.633 25.087c.003.027.017.048.022.073a.64.64 0 0 0 .037.128.64.64 0 0 0 .06.106.638.638 0 0 0 .285.238.642.642 0 0 0 .127.037c.025.005.046.019.072.02.02.002.037-.005.056-.005.018 0 .035.008.054.006.025-.002.045-.016.07-.02a.63.63 0 0 0 .136-.04.633.633 0 0 0 .097-.054.637.637 0 0 0 .107-.086.642.642 0 0 0 .072-.09.627.627 0 0 0 .064-.114.633.633 0 0 0 .035-.124c.006-.026.02-.048.022-.075.954-11.423 12.79-18.014 16.15-19.662.052 3.477-.52 6.58-1.42 9.299a.658.658 0 0 0-.085.258c-2.678 7.836-8.078 12.378-9.078 13.168h-2.752l6.848-11.243a.66.66 0 1 0-1.128-.686l-7.266 11.929h-3.854l-7.266-11.93a.659.659 0 1 0-1.127.687l6.848 11.243h-2.585c-.008-.007-.013-.017-.022-.024-.084-.06-6.289-4.596-9.224-13.146a.658.658 0 0 0-.083-.255 27.92 27.92 0 0 1-1.421-9.3c3.359 1.647 15.195 8.239 16.15 19.662ZM16.53 23.722c2.277 6.452 6.315 10.696 8.361 12.537h-2.767c-.096-.002-9.48-.332-14.053-12.34.963-.47 3.656-1.384 8.46-.197Z" fill="currentColor"></path></svg>