<svg xmlns="http://www.w3.org/2000/svg" width="46" height="46" viewBox="0 0 46 46" fill="none"><g fill-rule="evenodd" clip-rule="evenodd" fill="currentColor"><path d="M23 0C12.74 0 4.403 8.338 4.403 18.598V26.3c0 2.36 1.93 4.29 4.29 4.29 2.359 0 4.29-1.93 4.29-4.29v-6.603c0-2.36-1.931-4.29-4.29-4.29-.764 0-1.482.203-2.105.556C7.848 8.028 14.705 1.977 23 1.977c8.295 0 15.153 6.052 16.412 13.988a4.252 4.252 0 0 0-2.105-.557c-2.36 0-4.29 1.93-4.29 4.29v6.603c0 2.36 1.93 4.29 4.29 4.29.752 0 1.461-.197 2.078-.54-1.175 6.454-6.664 11.385-13.38 11.7A3.208 3.208 0 0 0 23 39.622c-1.75 0-3.19 1.44-3.19 3.19S21.25 46 23 46a3.209 3.209 0 0 0 3.053-2.273c8.635-.385 15.544-7.526 15.545-16.261v-8.869C41.597 8.337 33.258 0 23 0ZM8.692 17.385a2.287 2.287 0 0 1 2.314 2.313v6.603a2.287 2.287 0 0 1-2.314 2.314A2.287 2.287 0 0 1 6.38 26.3V19.69a2.287 2.287 0 0 1 2.313-2.305Zm28.615 0a2.287 2.287 0 0 1 2.313 2.313v6.603a2.287 2.287 0 0 1-2.313 2.314 2.287 2.287 0 0 1-2.313-2.314v-6.603a2.287 2.287 0 0 1 2.313-2.313ZM23 41.598c.681 0 1.213.531 1.213 1.212 0 .682-.532 1.213-1.213 1.213a1.198 1.198 0 0 1-1.213-1.213c0-.681.531-1.212 1.213-1.212Z"></path><path d="M32.115 33.067a.988.988 0 0 0-.755.056c-5.68 2.858-11.136 2.773-16.725-.003a.99.99 0 0 0-1.325.446.988.988 0 0 0 .446 1.325c6.048 3.003 12.329 3.098 18.493-.003a.989.989 0 0 0-.134-1.821Z"></path></g></svg>