<svg xmlns="http://www.w3.org/2000/svg" width="46" height="46" viewBox="0 0 46 46" fill="none"><path d="M5.112 32.22a20.638 20.638 0 0 1-.728-1.59.54.54 0 1 0-.998.405c.23.566.488 1.13.766 1.675a.54.54 0 0 0 .96-.49ZM3.795 28.982a20.57 20.57 0 0 1-.448-1.692.54.54 0 0 0-1.053.231c.131.597.29 1.196.471 1.781a.539.539 0 1 0 1.03-.32ZM2.58 26.172a.54.54 0 0 0 .464-.605 21 21 0 0 1-.157-1.744.533.533 0 0 0-.768-.462.54.54 0 0 0-.309.513c.03.614.085 1.23.164 1.833a.539.539 0 0 0 .606.464ZM12.004 40.003a20.925 20.925 0 0 1-1.41-1.04.541.541 0 0 0-.757.082.54.54 0 0 0 .082.758c.477.383.975.751 1.482 1.093a.54.54 0 1 0 .603-.893ZM5.973 33.745a.539.539 0 1 0-.915.57c.323.518.671 1.03 1.037 1.52a.538.538 0 0 0 .966-.244.54.54 0 0 0-.101-.4c-.347-.468-.68-.955-.987-1.446ZM8.064 36.549a.539.539 0 1 0-.807.715c.406.458.836.904 1.278 1.326a.54.54 0 1 0 .744-.78c-.42-.402-.829-.826-1.215-1.261ZM23.569 1.042a21.827 21.827 0 0 0-17.82 9.252.54.54 0 0 0 .882.62 20.7 20.7 0 1 1 6.863 30.005.538.538 0 1 0-.525.941c.535.3 1.089.578 1.645.83A21.786 21.786 0 1 0 23.57 1.041Z" fill="currentColor"></path><path d="M5.913 12.438a1.501 1.501 0 0 1-1.48-1.26l-.448-2.784a.539.539 0 0 1 1.064-.171l.45 2.784a.423.423 0 0 0 .482.348l2.785-.448a.539.539 0 0 1 .17 1.064l-2.784.448c-.079.013-.16.02-.24.02ZM37.492 13.618 24.393 6.716a1.725 1.725 0 0 0-1.612 0L9.682 13.618a1.725 1.725 0 0 0-.923 1.53v15.354a1.725 1.725 0 0 0 .923 1.53l13.099 6.903a1.73 1.73 0 0 0 1.612 0l13.099-6.903a1.725 1.725 0 0 0 .923-1.53V15.148a1.724 1.724 0 0 0-.923-1.53Zm-19.015 4.423a1.72 1.72 0 0 0-.949 1.543v6.16a.049.049 0 0 1-.036.052.048.048 0 0 1-.061-.013l-1.178-1.23a1.143 1.143 0 0 0-1.059-.324l-.769.166a.056.056 0 0 1-.068-.055v-6.906a.647.647 0 0 1 .358-.581l13.57-6.868 2.993 1.577-12.801 6.479Zm4.806-10.372a.652.652 0 0 1 .608 0l3.224 1.7L14.23 15.89c-.13.066-.252.15-.362.247l-3.394-1.718 12.81-6.75Zm-.235 30.188-12.863-6.779a.65.65 0 0 1-.348-.575V15.306l3.486 1.764a1.72 1.72 0 0 0-.043.364v6.905a1.136 1.136 0 0 0 1.373 1.109l.769-.166a.052.052 0 0 1 .053.017l1.179 1.23a1.134 1.134 0 0 0 1.953-.785v-5.999l4.2 2.125c.078.04.158.072.241.098v15.889Zm.245-16.948-4.047-2.049 13.201-6.681 4.255 2.241-12.82 6.49a.655.655 0 0 1-.589 0v-.001Zm14.044 9.593a.65.65 0 0 1-.348.575l-12.863 6.78V21.97c.083-.027.165-.06.243-.099l12.968-6.563v15.195Z" fill="currentColor"></path></svg>