<svg xmlns="http://www.w3.org/2000/svg" width="46" height="46" viewBox="0 0 46 46" fill="none"><path d="M31.614 15.334c-.249.007-.504.103-.678.28l-8.894 8.906-3.155-3.155c-.858-.858-2.232.51-1.355 1.355l3.83 3.834a.96.96 0 0 0 1.355 0l9.574-9.584c.623-.61.188-1.636-.677-1.636ZM23.001 0c-.276.006-.56.134-.738.349-2.137 2.56-5.415 3.515-8.846 3.485-3.43-.031-6.99-1.124-8.146-1.79a.96.96 0 0 0-1.437.831V23c0 11.065 8.95 19.98 18.889 22.966.18.053.372.053.552 0C33.21 42.99 42.167 34.063 42.167 23V2.887a.96.96 0 0 0-1.437-.832c-1.156.667-4.715 1.748-8.146 1.779-3.43.03-6.708-.915-8.845-3.481A.923.923 0 0 0 23 0Zm0 2.066c2.654 2.64 6.108 3.715 9.583 3.684a21.812 21.812 0 0 0 7.667-1.508V23c0 9.915-8.135 18.151-17.246 21.001-9.116-2.856-17.254-11.086-17.254-21V4.23c1.865.75 4.646 1.494 7.666 1.52 3.475.032 6.93-1.051 9.584-3.685Z" fill="currentColor"></path></svg>