<svg xmlns="http://www.w3.org/2000/svg" width="46" height="46" viewBox="0 0 46 46" fill="none"><path d="M43.294 10.702 23.396.09a.772.772 0 0 0-.719-.001L2.778 10.634a.798.798 0 0 0-.408.675L2.3 34.214c-.001.281.152.54.4.675l20.178 11.019c.23.126.519.123.747-.007l19.688-11.219a.767.767 0 0 0 .387-.666V11.379c0-.294-.24-.589-.406-.677ZM23.245 21.78l-7.88-4.506 18.387-9.922 7.597 4.051L23.245 21.78ZM32.13 6.486 13.423 16.581a.767.767 0 0 0-.403.674V22.3l-2.46-1.358v-5.428L29.9 5.296l2.23 1.189Zm-9.095-4.851 5.234 2.791-18.441 9.74-5.085-2.838 18.291-9.693ZM3.9 12.619l5.127 2.882v5.894c0 .28.151.536.396.672l3.993 2.203a.774.774 0 0 0 1.137-.671v-5.023l7.926 4.532v20.834L3.835 33.762 3.9 12.619ZM42.167 33.57 24.011 43.915V23.107l18.154-10.406V33.57Z" fill="currentColor"></path></svg>