<svg xmlns="http://www.w3.org/2000/svg" width="40" height="40" viewBox="0 0 40 40" fill="none"><path d="m36.144 30.114-3.935-3.927c.144-.147.283-.293.413-.43.15-.16.295-.313.435-.455.342-.276 2.249-1.893 2.316-3.635.027-.697-.246-1.332-.79-1.837a2.287 2.287 0 0 0-1.322-.62c.006-.056.015-.113.017-.17.025-.69-.247-1.318-.784-1.816a2.257 2.257 0 0 0-1.739-.62c-.143.01-.284.036-.425.069.081-.256.137-.515.148-.774a2.164 2.164 0 0 0-.597-1.618c-.777-.822-1.572-.919-2.102-.853-.309.037-.604.14-.883.279a2.312 2.312 0 0 0-.034-.472c-.107-.572-.44-1.035-.963-1.34-1.925-1.12-3.85.822-4.76 2.254a5.499 5.499 0 0 0-1.03-.053l-1.765-1.762c1.228-2.96.548-6.412-1.756-8.722C14.018 1.044 10.042.51 6.921 2.31a.624.624 0 0 0-.13.984l4.348 4.345-2.3 2.3-4.165-4.162a.623.623 0 0 0-1.014.191c-1.31 2.984-.627 6.546 1.697 8.862 2.308 2.307 5.764 2.99 8.727 1.762l1.095 1.094c-.84 1.949-.478 3.959-.27 4.766l-1.962 2.203-.47-.5a.624.624 0 0 0-.912 0l-2.911 3.11a.625.625 0 0 0-.003.85l9.644 10.434a.626.626 0 0 0 .448.2h.01a.623.623 0 0 0 .445-.184l3.075-3.105a.625.625 0 0 0 .011-.868l-.258-.275c.446-.659 1.505-1.938 2.848-1.618 1.222.287 2.492-.317 3.626-1.704l3.38 3.377a2.92 2.92 0 0 0 2.078.863c.742 0 1.485-.28 2.051-.844l.153-.152a2.867 2.867 0 0 0 .842-2.061 2.917 2.917 0 0 0-.86-2.064Zm-2.411-9.366c.28.26.404.535.39.87-.039 1.048-1.366 2.326-1.874 2.73a.592.592 0 0 0-.055.05c-.154.155-.314.324-.48.5-1.474 1.56-2.316 2.19-3.112 1.548-.588-.473-.42-1.082-.254-1.424.845-.44 1.608-1.246 2.211-1.89.148-.16.292-.313.43-.455.244-.2 1.28-1.09 1.871-2.218.334-.038.617.052.873.289Zm-2.887-2.898c.306-.018.561.071.798.291.274.253.396.525.385.854-.036 1.043-1.35 2.327-1.854 2.733a.589.589 0 0 0-.054.05c-.152.154-.311.324-.475.5-1.456 1.56-2.287 2.193-3.067 1.568-.73-.584-.278-1.385-.183-1.535.028-.043.038-.09.055-.137.983-.015 1.504-.47 1.708-.71.472-.552.569-1.317.327-2.055.15-.148.335-.343.535-.573.531-.47 1.215-.942 1.825-.985Zm-2.914-3.18c.359-.045.701.11 1.042.47a.905.905 0 0 1 .257.702c-.03.677-.576 1.49-1.102 2.11a9.61 9.61 0 0 0-.335.318c-.02-.02-.035-.043-.055-.063a23.622 23.622 0 0 0-1.916-1.733c.082-.12.173-.26.266-.415.48-.617 1.17-1.31 1.843-1.39Zm-2.66-1.694c.21.123.322.274.363.489.096.508-.217 1.257-.583 1.886-.098.128-.186.25-.26.359-.811-.553-1.593-.961-2.35-1.23.569-.758 1.785-2.114 2.83-1.504Zm-10.608 2.428a.621.621 0 0 0-.713-.121c-2.571 1.239-5.67.703-7.71-1.338a6.802 6.802 0 0 1-1.752-6.586l3.908 3.905c.244.245.64.245.884 0l3.185-3.183a.623.623 0 0 0 0-.884L8.29 3.023c2.498-1.051 5.445-.496 7.415 1.472 2.036 2.041 2.572 5.137 1.332 7.704a.625.625 0 0 0 .121.714l1.472 1.47c-.82.299-1.588.819-2.298 1.561-.191.2-.355.408-.508.618l-1.16-1.158ZM18.77 37.22l-8.806-9.527 2.058-2.197 8.938 9.512-2.19 2.212Zm6.39-5.74c-1.918-.45-3.322.986-4.005 1.91l-7.348-7.821 2.265-2.545a.628.628 0 0 0 .125-.618c-.012-.033-1.107-3.356 1.037-5.599 1.146-1.199 2.407-1.658 3.86-1.408 1.67.29 3.609 1.531 5.758 3.69.57.57.628 1.243.355 1.563-.467.548-2.025.374-4.346-1.302-.81-.586-1.446-.484-1.835-.296-1.423.689-1.629 3.659-1.656 4.246a.625.625 0 0 0 .596.653c.335 0 .637-.25.653-.595.003-.072.011-.147.016-.22l6.976 6.968c-.584.744-1.49 1.599-2.45 1.375Zm10.118 1.874-.15.151a1.673 1.673 0 0 1-2.362-.017L20.873 21.608c.174-.715.42-1.293.699-1.427.15-.069.388.06.56.183 1.221.883 2.22 1.37 3.031 1.611-.33.741-.484 1.952.636 2.846.394.315.785.466 1.17.508-.096.708.094 1.482.85 2.09.476.383.95.54 1.41.54.735 0 1.435-.405 2.064-.921l3.968 3.96c.316.316.493.738.495 1.186.002.446-.167.861-.477 1.172Z" fill="currentColor"></path></svg>