<svg xmlns="http://www.w3.org/2000/svg" width="40" height="40" viewBox="0 0 40 40" fill="none"><path d="M35.6 34.87h-4.49v-3.83c2.107-.387 3.838-1.548 4.706-3.192a3.59 3.59 0 0 0 .17-3.358c-.883-1.627-.533-2.623.047-4.272.529-1.505-.524-2.373-1.291-3.007a2.87 2.87 0 0 1-.952-1.051c-.552-1.648-2.842-2.741-3.101-2.86a.729.729 0 0 0-.609 0c-.246.113-2.315 1.102-2.998 2.61.184-.885.44-1.752.765-2.595.687-1.957-.673-3.081-1.765-3.982-.651-.538-1.266-1.045-1.472-1.66-.754-2.248-3.94-3.768-4.302-3.935a.73.73 0 0 0-.608 0c-.361.167-3.548 1.686-4.302 3.935-.205.615-.82 1.124-1.471 1.66-1.093.901-2.453 2.024-1.765 3.982.323.843.577 1.711.76 2.596-.686-1.508-2.754-2.499-2.999-2.61a.73.73 0 0 0-.609 0c-.259.119-2.548 1.212-3.1 2.86a2.873 2.873 0 0 1-.954 1.05c-.77.633-1.822 1.502-1.291 3.007.58 1.65.929 2.645.047 4.272a3.59 3.59 0 0 0 .17 3.358c.866 1.644 2.597 2.805 4.705 3.192v3.83H4.4a.729.729 0 1 0 0 1.458h31.198a.729.729 0 1 0 0-1.457Zm-14.871-6.112a10.492 10.492 0 0 0 3.972-1.47c.621 1.677 2.331 3.28 4.952 3.755v3.826H20.73v-6.11Zm7.629-12.134c.252-.752 1.374-1.49 2.025-1.845.65.353 1.77 1.09 2.023 1.845a3.964 3.964 0 0 0 1.405 1.71c.816.674 1.013.924.845 1.401-.614 1.747-1.143 3.255.047 5.45a2.165 2.165 0 0 1-.177 1.984 4.99 4.99 0 0 1-3.415 2.385V19.8a.729.729 0 0 0-1.457 0v9.752c-2.14-.483-3.46-1.905-3.712-3.21a7.696 7.696 0 0 0 1.608-2.068c.837-1.585.928-3.281.246-4.539a6.945 6.945 0 0 1-.638-1.57 3.554 3.554 0 0 0 1.2-1.54ZM14.85 10.458c.744-.615 1.588-1.31 1.926-2.32.42-1.254 2.254-2.42 3.224-2.925.97.502 2.802 1.666 3.223 2.924.339 1.01 1.183 1.707 1.927 2.32 1.185.979 1.636 1.467 1.317 2.374-.895 2.546-1.602 4.557.047 7.597.45.829.354 2.012-.254 3.165-.995 1.885-3.03 3.224-5.532 3.683v-6.814l2.117-1.147a.729.729 0 1 0-.694-1.281l-1.422.77v-5.986a.729.729 0 0 0-1.458 0v2.836l-1.422-.77a.729.729 0 0 0-.695 1.281l2.117 1.147v4.643l-1.422-.77a.729.729 0 0 0-.695 1.281l2.117 1.147v3.664c-2.501-.458-4.538-1.797-5.532-3.683-.607-1.153-.703-2.336-.254-3.164 1.65-3.04.943-5.051.048-7.597-.32-.91.132-1.397 1.317-2.375ZM5.474 27.169a2.165 2.165 0 0 1-.177-1.984c1.19-2.195.66-3.703.047-5.449-.166-.478.029-.728.845-1.4a3.966 3.966 0 0 0 1.405-1.711c.252-.753 1.374-1.492 2.025-1.846.65.353 1.77 1.09 2.024 1.845.248.616.663 1.15 1.2 1.54a6.973 6.973 0 0 1-.638 1.572c-.682 1.258-.59 2.954.245 4.539a7.691 7.691 0 0 0 1.609 2.067c-.24 1.185-1.443 2.707-3.712 3.212V19.8a.729.729 0 0 0-1.458 0v9.755a4.99 4.99 0 0 1-3.415-2.386Zm4.872 3.875c2.623-.476 4.335-2.082 4.955-3.753 1.21.753 2.56 1.253 3.97 1.467v6.113h-8.924l-.001-3.827Z" fill="currentColor"></path></svg>