<svg xmlns="http://www.w3.org/2000/svg" width="130" height="100" fill="none" viewBox="0 0 130 100"><path fill="#787878" d="M35.593 94.677a.226.226 0 0 1 .16.075l.428.464c-.33.384-.74.69-1.202.898a4.093 4.093 0 0 1-1.704.32 4.048 4.048 0 0 1-1.603-.299 3.563 3.563 0 0 1-1.213-.844 3.853 3.853 0 0 1-.774-1.309 4.776 4.776 0 0 1-.278-1.672 4.562 4.562 0 0 1 .294-1.672 3.74 3.74 0 0 1 2.116-2.153 4.318 4.318 0 0 1 1.645-.304 3.702 3.702 0 0 1 2.671 1.025l-.353.502a.538.538 0 0 1-.09.097.268.268 0 0 1-.305 0l-.192-.129a3.365 3.365 0 0 0-.267-.17 2.498 2.498 0 0 0-.358-.171 3.203 3.203 0 0 0-1.122-.182 3.147 3.147 0 0 0-1.186.219 2.67 2.67 0 0 0-.924.636 2.83 2.83 0 0 0-.61 1.004c-.148.424-.22.87-.213 1.32-.01.457.063.913.214 1.346.129.37.33.712.593 1.004.248.267.55.478.886.62.35.145.727.217 1.106.213.216.001.432-.013.647-.042.182-.024.362-.069.534-.134.16-.057.312-.132.454-.224.15-.1.293-.211.427-.331a.273.273 0 0 1 .22-.107zM47.934 92.31a4.648 4.648 0 0 1-.288 1.667c-.181.484-.457.927-.812 1.303a3.648 3.648 0 0 1-1.261.85 4.54 4.54 0 0 1-3.243 0 3.697 3.697 0 0 1-1.26-.85 3.778 3.778 0 0 1-.807-1.303 4.942 4.942 0 0 1 0-3.329c.177-.486.451-.932.806-1.309a3.74 3.74 0 0 1 1.261-.854 4.472 4.472 0 0 1 3.243 0 3.66 3.66 0 0 1 1.26.854c.356.378.632.823.813 1.31.197.53.295 1.094.288 1.66zm-1.122 0a4.17 4.17 0 0 0-.203-1.336c-.12-.37-.317-.71-.577-.999a2.43 2.43 0 0 0-.897-.625 3.007 3.007 0 0 0-1.186-.219 2.976 2.976 0 0 0-1.176.22c-.337.135-.64.345-.886.613-.26.29-.458.63-.583 1a4.61 4.61 0 0 0 0 2.67c.125.368.323.706.583.994.25.274.558.488.902.625.374.15.773.224 1.176.22a3.11 3.11 0 0 0 1.186-.22c.343-.137.65-.351.897-.625.26-.287.457-.625.577-.993.134-.43.197-.876.187-1.325zM56.348 93.704c.043.101.08.203.118.304.037-.107.075-.208.117-.304.043-.096.091-.193.14-.289l2.735-4.963a.3.3 0 0 1 .15-.155.626.626 0 0 1 .224-.032h.806v8.072h-.956V89.88l-2.767 5.048a.434.434 0 0 1-.39.251h-.16a.444.444 0 0 1-.396-.25l-2.826-5.065c0 .096 0 .192.027.288.026.096 0 .176 0 .257v5.93h-.957V88.27h.807a.624.624 0 0 1 .225.032c.069.03.124.086.154.155l2.79 4.968c.058.09.111.182.16.278zM66.621 93.324v3.019h-1.068V88.27h2.382c.452-.01.903.052 1.336.181.344.1.662.27.935.502.239.217.422.488.534.791.126.329.188.679.182 1.031.004.351-.062.7-.193 1.026-.13.309-.326.584-.577.807-.277.238-.598.42-.945.534-.418.13-.855.193-1.293.187l-1.293-.006zm0-.865h1.293c.281.004.56-.037.828-.123a1.77 1.77 0 0 0 .598-.347c.161-.15.287-.331.37-.534.082-.217.123-.447.122-.679a1.555 1.555 0 0 0-.475-1.207 2.09 2.09 0 0 0-1.443-.433h-1.293v3.323zM80.987 96.343h-.85a.363.363 0 0 1-.235-.07.535.535 0 0 1-.133-.187l-.754-1.95h-3.622l-.758 1.95a.47.47 0 0 1-.134.182.385.385 0 0 1-.235.075h-.86l3.205-8.072h1.106l3.27 8.072zm-5.289-2.997h3.013l-1.272-3.28a6.96 6.96 0 0 1-.24-.764c-.043.155-.08.299-.123.427s-.075.24-.112.342l-1.266 3.275zM85.602 88.308c.06.042.115.092.16.15l4.675 6.085a2.623 2.623 0 0 1 0-.284v-5.988h.956v8.072h-.534a.535.535 0 0 1-.219-.043.534.534 0 0 1-.17-.155l-4.67-6.074v6.272h-.956V88.27h.56c.068 0 .135.012.198.037zM99.263 93.133v3.205h-1.069v-3.205l-2.96-4.862h.957a.337.337 0 0 1 .23.075c.06.05.11.112.149.182l1.848 3.136c.07.12.133.245.187.373.054.113.097.23.14.342.042-.117.085-.235.133-.347a3 3 0 0 1 .187-.368l1.843-3.136a.672.672 0 0 1 .139-.171.294.294 0 0 1 .224-.086h.983l-2.991 4.862zM55.82 74.728c.47.057.94.105 1.41.145A40.131 40.131 0 0 0 80.987 37.37l-7.939-7.944A46.125 46.125 0 0 1 55.82 74.728z"></path><path fill="#373737" d="m52.982 74.36.22.042A44.591 44.591 0 0 0 70.548 27.46l-11.31-11.315a54.747 54.747 0 0 1-6.256 58.215z"></path><path fill="#787878" d="M91.356 46.693A41.306 41.306 0 0 1 78.05 69.007a42.467 42.467 0 0 1-6.326 4.541 37.246 37.246 0 0 0 24.228-22.261l-4.595-4.594z"></path><path fill="#373737" d="m89.556 45.416-6.534-6.529a41.712 41.712 0 0 1-22.117 36.12h.032c1.466-.002 2.93-.089 4.386-.262a40.202 40.202 0 0 0 24.233-29.33z"></path><path fill="#787878" d="m53.944 11.37-7.783-7.806a37.092 37.092 0 0 0-23.73 34.49 37.107 37.107 0 0 0 28.083 35.884 52.962 52.962 0 0 0 3.43-62.569zM107.564 44.213A37.065 37.065 0 0 0 70.607 7.256a36.584 36.584 0 0 0-13.228 2.468l47.728 47.722a36.697 36.697 0 0 0 2.463-13.233h-.006z"></path></svg>