<svg xmlns="http://www.w3.org/2000/svg" width="130" height="100" fill="none" viewBox="0 0 130 100"><path fill="#787878" d="M69.028 13.349a29.57 29.57 0 0 1-1.346 51.59 29.568 29.568 0 0 0 22.186-48.63 29.57 29.57 0 0 0-36.37-7.106 29.382 29.382 0 0 1 15.53 4.146z"></path><path fill="#373737" d="M35.227 56.477a38.534 38.534 0 0 0 6.753 13.195 40.795 40.795 0 0 0 7.095 4.103 39.992 39.992 0 0 1-7.902-14.825 43.123 43.123 0 0 1-.432-22.272 40.439 40.439 0 0 1-2.228-11.154 41.002 41.002 0 0 0-3.285 30.953z"></path><path fill="#787878" d="M42.584 58.54A38.693 38.693 0 0 0 52.2 75.03a40.777 40.777 0 0 0 48.32-17.095 40.787 40.787 0 0 1-58.844-18.74 41.794 41.794 0 0 0 .908 19.344zM38.438 22.687a40.564 40.564 0 0 1 6.016-20.835 40.762 40.762 0 0 0-6.62 64.423 39.803 39.803 0 0 1-4.028-9.37c-3.419-12.085-1.533-24.377 4.632-34.218z"></path><path fill="#373737" d="M53.91 17.559S43.829 44.719 70.77 54.18C81.102 27.554 53.91 17.56 53.91 17.56z"></path><path fill="#787878" d="M23.533 97.485a4.499 4.499 0 0 1-1.79-1.715 4.765 4.765 0 0 1-.65-2.474 4.712 4.712 0 0 1 .656-2.468 4.615 4.615 0 0 1 1.795-1.715 5.246 5.246 0 0 1 2.56-.625 5.341 5.341 0 0 1 2.093.401 4.226 4.226 0 0 1 1.603 1.165l-1.122 1.068a3.276 3.276 0 0 0-2.495-1.068 3.541 3.541 0 0 0-1.725.422c-.498.27-.909.676-1.186 1.17a3.579 3.579 0 0 0 0 3.392c.279.492.69.898 1.186 1.17.53.283 1.124.427 1.725.417a3.25 3.25 0 0 0 2.495-1.106l1.122 1.068a4.23 4.23 0 0 1-1.603 1.16 5.374 5.374 0 0 1-2.105.4 5.22 5.22 0 0 1-2.559-.662zM35.73 97.484a4.61 4.61 0 0 1-1.8-1.72 4.952 4.952 0 0 1 0-4.93 4.61 4.61 0 0 1 1.8-1.72 5.626 5.626 0 0 1 5.155 0 4.574 4.574 0 0 1 1.806 1.714 5.012 5.012 0 0 1 0 4.941 4.573 4.573 0 0 1-1.806 1.715 5.668 5.668 0 0 1-5.155 0zm4.274-1.32a3.104 3.104 0 0 0 1.175-1.174 3.558 3.558 0 0 0 0-3.382 3.104 3.104 0 0 0-1.175-1.175 3.569 3.569 0 0 0-3.366 0c-.492.276-.9.682-1.175 1.175a3.558 3.558 0 0 0 0 3.382c.276.492.683.899 1.175 1.175a3.606 3.606 0 0 0 3.366 0zM56.448 97.987V91.79l-3.088 5.128h-.775l-3.072-5.048v6.117h-1.656v-9.35h1.432l3.74 6.198 3.643-6.197h1.432v9.349h-1.656zM69.226 89.022a3.077 3.077 0 0 1 1.383 1.149 3.51 3.51 0 0 1 0 3.547 3.055 3.055 0 0 1-1.383 1.154 5.17 5.17 0 0 1-2.137.4h-2.137v2.714h-1.736v-9.349h3.846a5.172 5.172 0 0 1 2.164.385zm-.476 4.274a1.902 1.902 0 0 0 0-2.751 2.671 2.671 0 0 0-1.72-.481H65v3.713h2.03a2.671 2.671 0 0 0 1.742-.454l-.022-.027zM81.112 95.807h-4.674l-.919 2.18h-1.79l4.205-9.35h1.71l4.22 9.35h-1.817l-.935-2.18zm-.571-1.362-1.763-4.087-1.753 4.087h3.516zM96.033 88.621v9.365h-1.432l-5.155-6.33v6.33h-1.72v-9.349h1.426l5.155 6.33v-6.346h1.726zM105.249 94.674v3.313h-1.736v-3.27l-3.676-6.08h1.86l2.735 4.558 2.767-4.557h1.71l-3.66 6.036z"></path></svg>