<svg xmlns="http://www.w3.org/2000/svg" width="130" height="100" fill="none" viewBox="0 0 130 100"><path fill="#787878" d="M69.736 75.675c.448.55.686 1.241.673 1.95a3.066 3.066 0 0 1-1.068 2.452 4.492 4.492 0 0 1-3.013.903h-5.294V68.645h5.187a4.44 4.44 0 0 1 2.874.822 2.805 2.805 0 0 1 1.004 2.308c.03.68-.183 1.35-.603 1.886-.41.493-.975.832-1.603.962a2.997 2.997 0 0 1 1.843 1.052zm-6.229-1.859h2.222a2.088 2.088 0 0 0 1.405-.411 1.452 1.452 0 0 0 .481-1.176 1.533 1.533 0 0 0-.47-1.19 2.137 2.137 0 0 0-1.453-.418h-2.185v3.195zm3.846 4.728a1.764 1.764 0 0 0 0-2.516 2.281 2.281 0 0 0-1.511-.449h-2.335v3.392h2.345a2.335 2.335 0 0 0 1.518-.427h-.016zM80.308 80.98l-2.88-4.808H76.36v4.808h-2.462V68.645h4.7a4.642 4.642 0 0 1 3.276 1.068 3.588 3.588 0 0 1 1.121 2.757 3.542 3.542 0 0 1-.79 2.334 3.851 3.851 0 0 1-2.244 1.261l3.072 4.926-2.725-.011zm-3.98-6.502h2.025c1.425 0 2.137-.621 2.137-1.864a1.838 1.838 0 0 0-.534-1.389 2.25 2.25 0 0 0-1.603-.502h-2.025v3.755zM93.899 78.496h-4.942l-.876 2.484H85.48l4.541-12.191h2.81l4.525 12.19h-2.601l-.855-2.483zm-.663-1.865-1.816-5.209-1.822 5.21h3.638zM110.876 80.98h-2.462l-5.524-8.388v8.387h-2.463V68.644h2.463l5.524 8.457v-8.457h2.462v12.335zM124.942 78.01a5.387 5.387 0 0 1-2.221 2.174 7.287 7.287 0 0 1-3.468.78h-4.385v-12.32h4.386c1.2-.03 2.39.233 3.466.765a5.257 5.257 0 0 1 2.223 2.137 7.185 7.185 0 0 1 0 6.464zm-2.82-.294a4.502 4.502 0 0 0 0-5.877 4.272 4.272 0 0 0-3.083-1.068h-1.71v7.981h1.71a4.275 4.275 0 0 0 3.073-1.02l.01-.016zM44.098 68.147a27.834 27.834 0 0 1-13.964-3.74l5.395-9.3a17.096 17.096 0 1 0 0-29.607l-5.395-9.3a27.86 27.86 0 1 1 13.964 51.963v-.016z"></path><path fill="#373737" d="M43.866 62.38c1.438-6.093-2.336-12.198-8.43-13.636-6.093-1.439-12.198 2.335-13.636 8.429-1.439 6.093 2.335 12.199 8.429 13.637 6.093 1.438 12.199-2.336 13.637-8.43z"></path><path fill="#787878" d="M32.116 87.556a27.818 27.818 0 1 1 21.46-45.505l-8.292 6.843a17.063 17.063 0 1 0-.731 22.529l7.831 7.367a27.914 27.914 0 0 1-20.268 8.766z"></path></svg>