<svg xmlns="http://www.w3.org/2000/svg" width="130" height="100" fill="none" viewBox="0 0 130 100"><path fill="#373737" d="m37.57 2.58 13.987 13.985H90.57V55.58l13.986 13.986V2.579H37.571z"></path><path fill="#787878" d="M25.817 16.565v64.748h64.754V55.58L51.572 16.58l-25.755-.016zm52.418 55.282H36.064V28.302h2.986v40.57h39.19l-.005 2.975zM31.037 95.828a.22.22 0 0 1 .15.064l.384.427a3.104 3.104 0 0 1-1.069.813 4.093 4.093 0 0 1-2.991 0 3.207 3.207 0 0 1-1.1-.77 3.467 3.467 0 0 1-.717-1.159 4.338 4.338 0 0 1-.25-1.523 4.274 4.274 0 0 1 .266-1.522 3.5 3.5 0 0 1 .759-1.186 3.308 3.308 0 0 1 1.165-.77c.475-.19.983-.285 1.495-.277a3.356 3.356 0 0 1 2.442.93l-.326.453a.306.306 0 0 1-.08.086.256.256 0 0 1-.272-.016l-.182-.118a2.104 2.104 0 0 0-.24-.155 2.068 2.068 0 0 0-.327-.154 3.377 3.377 0 0 0-.438-.123 3.175 3.175 0 0 0-.582-.048 2.831 2.831 0 0 0-1.068.203 2.355 2.355 0 0 0-.84.577c-.238.264-.42.575-.533.913a3.419 3.419 0 0 0-.198 1.202c-.008.416.06.83.198 1.223.116.336.297.644.534.909.223.246.499.44.807.566.317.134.66.201 1.004.198.196 0 .393-.013.588-.038.165-.025.328-.066.486-.123a1.9 1.9 0 0 0 .416-.208c.137-.088.266-.188.385-.3a.273.273 0 0 1 .134-.074zM42.255 93.676a4.272 4.272 0 0 1-.262 1.511c-.164.44-.415.844-.737 1.186-.322.334-.71.598-1.138.775-.95.363-2 .363-2.949 0a3.307 3.307 0 0 1-1.143-.775 3.377 3.377 0 0 1-.748-1.17 4.498 4.498 0 0 1 0-3.023c.162-.444.413-.85.737-1.192.323-.335.712-.6 1.144-.774.948-.37 2-.37 2.949 0 .432.176.823.44 1.148.774.321.346.572.75.737 1.192.176.479.265.985.262 1.496zm-1.02 0a3.738 3.738 0 0 0-.187-1.213 2.488 2.488 0 0 0-.534-.908 2.218 2.218 0 0 0-.818-.572 2.943 2.943 0 0 0-2.137 0 2.282 2.282 0 0 0-.822.572c-.24.262-.421.571-.535.908a4.14 4.14 0 0 0 0 2.425c.115.336.297.645.535.908.23.246.51.44.822.567a3.014 3.014 0 0 0 2.137 0c.311-.126.59-.32.818-.567.24-.262.421-.57.534-.908.128-.39.192-.8.187-1.212zM49.906 94.947c.037.09.074.181.106.277.032-.096.07-.187.107-.277.038-.091.08-.171.128-.262l2.485-4.514a.331.331 0 0 1 .138-.145.69.69 0 0 1 .203 0h.738v7.314h-.871v-5.876l-2.51 4.589a.396.396 0 0 1-.364.23h-.14a.39.39 0 0 1-.357-.23l-2.56-4.59a2.24 2.24 0 0 1 .001.262v5.615h-.839v-7.335h.732a.67.67 0 0 1 .203 0c.06.033.109.083.14.144l2.537 4.52c.05.088.092.181.123.278zM59.249 94.6v2.74h-.967v-7.335h2.137c.41-.008.819.046 1.213.16.314.092.605.248.854.46.223.194.395.44.503.715.114.299.17.616.165.935.004.322-.056.642-.176.94-.12.282-.303.533-.534.732-.25.216-.541.38-.855.481a3.74 3.74 0 0 1-1.175.171h-1.165zm0-.791h1.17c.256.004.51-.034.753-.113.197-.069.379-.176.534-.315.147-.134.26-.3.332-.486.077-.197.115-.408.112-.62a1.41 1.41 0 0 0-.433-1.095 1.89 1.89 0 0 0-1.309-.395h-1.175l.016 3.024zM72.31 97.34h-.768a.331.331 0 0 1-.214-.07.363.363 0 0 1-.123-.17l-.69-1.77h-3.29l-.689 1.77a.363.363 0 0 1-.123.165.326.326 0 0 1-.214.075h-.769L68.368 90h1.005l2.938 7.34zm-4.807-2.73h2.74l-1.148-2.987a5.847 5.847 0 0 1-.225-.689c-.037.14-.069.267-.106.385a2.92 2.92 0 0 1-.107.31l-1.154 2.98zM76.504 90.038a.46.46 0 0 1 .15.133l4.274 5.535a2.24 2.24 0 0 1 0-.262v-5.439h.87v7.335h-.545a.433.433 0 0 1-.197-.042.464.464 0 0 1-.155-.14l-4.274-5.528V97.34h-.87v-7.335h.533a.433.433 0 0 1 .214.033zM88.93 94.423v2.917h-.988v-2.922L85.272 90h.87a.325.325 0 0 1 .208.064c.055.046.1.103.134.165l1.661 2.837c.066.108.123.22.171.337.049.107.091.208.129.315.037-.107.08-.214.123-.32a2.45 2.45 0 0 1 .165-.332l1.672-2.853a.687.687 0 0 1 .128-.155.269.269 0 0 1 .203-.074h.882l-2.687 4.44z"></path></svg>